<?xml version="1.0" encoding="UTF-8"?>
<svg id="Layer_1" xmlns="http://www.w3.org/2000/svg" xmlns:xlink="http://www.w3.org/1999/xlink" viewBox="0 0 1487.94 216.99">
  <defs>
    <style>
      .cls-1 {
        fill: none;
      }

      .cls-2 {
        fill: url(#linear-gradient-4);
      }

      .cls-3 {
        fill: url(#linear-gradient-3);
      }

      .cls-4 {
        fill: url(#linear-gradient-2);
      }

      .cls-5 {
        fill: url(#linear-gradient);
      }

      .cls-6 {
        fill: #017a98;
      }

      .cls-7 {
        clip-path: url(#clippath);
      }
    </style>
    <clipPath id="clippath">
      <rect class="cls-1" x="7.01" y="11.13" width="197.69" height="194.22"/>
    </clipPath>
    <linearGradient id="linear-gradient" x1="7.55" y1="201.93" x2="7.63" y2="201.93" gradientTransform="translate(0 306.89) scale(1 -1)" gradientUnits="userSpaceOnUse">
      <stop offset="0" stop-color="#76d4e3"/>
      <stop offset="1" stop-color="#017a98"/>
    </linearGradient>
    <linearGradient id="linear-gradient-2" x1="153.81" y1="126.36" x2="26.64" y2="263.55" xlink:href="#linear-gradient"/>
    <linearGradient id="linear-gradient-3" x1="204.44" y1="199.17" x2="204.48" y2="199.17" xlink:href="#linear-gradient"/>
    <linearGradient id="linear-gradient-4" x1="57.75" y1="265.19" x2="189.89" y2="136.46" xlink:href="#linear-gradient"/>
  </defs>
  <path d="M263.66,109.83c0-45.53,36.19-81.18,83.67-81.18,25.53,0,48.33,10.22,64.58,27.88l-18.61,14.69c-11.96-12.85-28.18-19.77-46.01-19.77-33.36,0-59.47,24.74-59.47,58.35s26.11,58.52,59.47,58.52c18.44,0,34.42-7.02,46.59-20.14l18.85,14.31c-16.63,18.16-39.12,28.53-65.37,28.53-47.54,0-83.67-35.48-83.67-81.15l-.03-.03Z"/>
  <path d="M444.26,31.25h24.3l-.14,134.89h88.51v22.15h-112.63V31.25h-.03Z"/>
  <path d="M651.87,25.01l88.24,163.45h-26.11l-18.2-34.52h-88.44l-18.4,34.52h-26.65l89.6-163.45h-.03ZM684.96,133.69l-33.36-63.08-33.5,63.08h66.87Z"/>
  <path d="M762.02,31.25h24.3v157.04h-24.3V31.25Z"/>
  <path d="M931.36,188.32l-75.11-69.32v69.32h-24.3V31.28h73.68c34.29,0,57.25,16.77,57.25,47.3s-21.02,46.52-55.42,46.52h-13.12l71.74,63.25h-34.77l.03-.03ZM856.25,104h51.25c18.1,0,30.57-8.04,30.57-25.46s-12.44-25.46-30.57-25.46h-51.25v50.92Z"/>
  <path d="M1000.27,31.25h24.3l-.13,134.89h88.5v22.15h-112.64V31.25h-.03Z"/>
  <path d="M1142.11,31.25h24.3v157.04h-24.3V31.25Z"/>
  <path d="M1249.8,53.4h-54.87l-.14-22.15h133.8v22.15h-54.76v134.89h-23.99V53.4h-.03Z"/>
  <path d="M1357.06,31.25h122.89v22.05h-98.73v40.18l71.77.1v21.47h-71.77v51.09h98.87v22.19h-123.03V31.25Z"/>
  <g class="cls-7">
    <g>
      <path class="cls-6" d="M129.58,161.68c9.4,5.15,20.17,29.7-7.4,40.2-17.84,6.8-41.9,2.86-58.7-4.9-19.78-9.14-36.1-25.99-46.15-45.27-.61-1.16-1.18-2.33-1.74-3.51-6.84-14.48-10.77-31.42-7.28-47.32,0,0,8.41,57.29,66.88,72.02,0,0,44.04,8.69,45.85-7.01,0,0-.34-7.3-10.04-7.82,5.41-.78,13.23.69,18.6,3.63h0Z"/>
      <path class="cls-5" d="M7.55,105.26c.02-.21.06-.4.08-.61-.03.21-.06.4-.08.61Z"/>
      <path class="cls-4" d="M122.18,201.87c27.57-10.49,16.81-35.03,7.39-40.2-11.09-6.08-24.22-3.04-36.07-2.12-40.84,3.16-77.7-27.07-80.17-68.45C11.01,51.82,43.89,24.78,76.62,11.13c-12.47,5.2-23.1,17.14-30.24,28.61-9.02,14.47-13.41,29.71-9.06,46.47,4.75,18.35,21.32,31.2,39.21,35.5,18.6,4.48,38.3-.02,56.65,5.9,21.93,7.07,30.35,33.53,19.45,53.12-6.47,11.63-18.01,17.94-30.46,21.13h.01Z"/>
      <path class="cls-6" d="M81.47,57.95c-9.52-4.61-21.35-28.24,5.28-39.97,17.23-7.59,41.13-4.91,58.07,1.89,19.95,8.01,36.86,23.78,47.73,42.29.65,1.11,1.29,2.24,1.89,3.37,7.46,13.91,12.18,30.41,9.54,46.24,0,0-11.16-56.02-69.48-67.59,0,0-43.81-6.36-44.8,9.21,0,0,.71,7.17,10.28,7.2-5.29,1.04-13.07-.01-18.5-2.64h-.01Z"/>
      <path class="cls-3" d="M204.48,107.41c-.01.21-.03.4-.05.61.02-.21.03-.4.05-.61Z"/>
      <path class="cls-2" d="M86.73,17.98c-26.63,11.72-14.8,35.36-5.27,39.97,11.23,5.44,24.01,1.78,35.63.29,40.07-5.15,77.9,22.77,82.4,63.42,4.27,38.58-26.76,66.84-58.32,81.94,12.02-5.74,21.89-18.04,28.35-29.68,8.16-14.72,11.72-29.93,6.6-46.23-5.6-17.85-22.56-29.66-40.41-33.01-18.54-3.48-37.73,1.94-56.1-2.97-21.96-5.87-31.58-31.51-21.82-51.35,5.79-11.78,16.85-18.57,28.95-22.35v-.02Z"/>
    </g>
  </g>
</svg>